<svg xmlns="http://www.w3.org/2000/svg" viewBox="0 0 500 500"><g id="freepik--Shadows--inject-53"><ellipse id="freepik--Shadow--inject-53" cx="92.43" cy="420" rx="43.14" ry="24.91" style="fill:#e6e6e6"></ellipse><ellipse id="freepik--shadow--inject-53" cx="413.33" cy="265.48" rx="43.14" ry="24.91" style="fill:#e6e6e6"></ellipse></g><g id="freepik--Plants--inject-53"><g id="freepik--plants--inject-53"><path d="M65.35,419.24c-2.5-4-10.15-8.41-20.22-10.58S25,403.78,27.27,397.94c2.5-6.3,11.85-6.6,21-2.86,10,4.1,17.39,14.25,17.54,20.63Z" style="fill:#90CAF9"></path><g style="opacity:0.1"><path d="M65.35,419.24c-2.5-4-10.15-8.41-20.22-10.58S25,403.78,27.27,397.94c2.5-6.3,11.85-6.6,21-2.86,10,4.1,17.39,14.25,17.54,20.63Z"></path></g><path d="M66.14,417.41a.75.75,0,0,1-.68-.42c-8-16.54-26.51-19.2-32.36-18.3a.75.75,0,0,1-.85-.63.74.74,0,0,1,.62-.86c6.14-.95,25.58,1.83,33.95,19.13a.76.76,0,0,1-.35,1A.78.78,0,0,1,66.14,417.41Z" style="fill:#fff"></path><path d="M65.35,419.24s-4.81-19.06-17-29.3c-3.62-3.05-7.48-6.85-10.18-9.48-5.79-5.65-3.38-11.79,4.65-11.67,11.92.16,20.64,10.2,24.42,23.34S65.35,419.24,65.35,419.24Z" style="fill:#90CAF9"></path><path d="M67.25,411.84a.76.76,0,0,1-.75-.68c-2.24-24.23-20.73-36.41-25.76-37.7a.75.75,0,1,1,.38-1.46c6.1,1.57,24.58,14.21,26.88,39a.76.76,0,0,1-.68.82Z" style="fill:#fff"></path></g><g id="freepik--plants--inject-53"><path d="M438.28,235.67c-.21-.1.21-15,7.24-23.25s14.85-8.7,19.77-6.18,3.49,7.64-3,10.3-14.68,7.55-17.28,17.39Z" style="fill:#90CAF9"></path><path d="M438.28,235.67c-.21-.1.21-15,7.24-23.25s14.85-8.7,19.77-6.18,3.49,7.64-3,10.3-14.68,7.55-17.28,17.39Z" style="opacity:0.1"></path><path d="M441,231.5a.48.48,0,0,0,.5-.37c3.52-14.88,13-21.59,20.65-22.91a.48.48,0,0,0,.39-.56.48.48,0,0,0-.55-.39c-8,1.38-17.79,8.31-21.42,23.64a.48.48,0,0,0,.35.58Z" style="fill:#fff"></path><path d="M437.38,263.3c1.26-3.84,5.39-6.13,10.07-6.2,4.86-.07,10.51-.13,12.31-4.1s.7-9.59,1.6-12.26c1.07-3.21,2.47-5.07,9-6.59,5.82-1.36,9.37-6.56,3.81-9.28s-11.4-1.7-15.43-.25-4.34,3.28-9.78,2.4-9.81,2.26-10.41,5.56Z" style="fill:#90CAF9"></path><path d="M438.37,250a.49.49,0,0,0,.47-.28c5.45-12.24,24.75-22.23,30.93-22.49a.49.49,0,0,0,.46-.5.47.47,0,0,0-.5-.46c-6.36.28-26.18,10.52-31.76,23.06a.48.48,0,0,0,.24.63Z" style="fill:#fff"></path><path d="M443.25,242.81h.11a.48.48,0,0,0,.4-.55c-1-6.66.77-10.77.79-10.81a.48.48,0,1,0-.87-.39c-.08.17-1.94,4.39-.87,11.35A.48.48,0,0,0,443.25,242.81Z" style="fill:#fff"></path><path d="M439.77,247.4a.39.39,0,0,0,.23,0c3.85-1.73,11.78.3,11.86.33a.49.49,0,0,0,.58-.35.48.48,0,0,0-.34-.58c-.34-.09-8.33-2.14-12.49-.27a.48.48,0,0,0-.24.63A.46.46,0,0,0,439.77,247.4Z" style="fill:#fff"></path></g></g><g id="freepik--glasses-3--inject-53"><g id="freepik--Glasses--inject-53"><path d="M425,359.3l-62.45-36a20.92,20.92,0,0,0-31.37,18.11v2.23a3,3,0,0,0,6,0v-2.23a14.92,14.92,0,0,1,22.38-12.91l62.44,36a3,3,0,1,0,3-5.2Z" style="fill:#37474f"></path><path d="M355.22,389.05a10.34,10.34,0,0,0-4.85-1c-4.8,0-11.42,2.14-18.77,6.73-11.77,7.37-26.12,19.85-27.74,42.27-1.37,18.9,3.17,31.05,8.65,34.41l-3.82-2.19c-5.59-3.16-10.28-15.39-8.89-34.56,1.62-22.41,16-34.9,27.74-42.26,7.35-4.6,14-6.74,18.77-6.74a10.17,10.17,0,0,1,5.07,1.14Z" style="fill:#90CAF9"></path><path d="M309.11,417.85l-4.05-2.34a49.36,49.36,0,0,0-5.26,19.18c-1.39,19.17,3.3,31.4,8.89,34.56l3.82,2.19c-5.48-3.36-10-15.51-8.65-34.41A49.53,49.53,0,0,1,309.11,417.85Z" style="opacity:0.15"></path><path d="M355.22,389.05a10.34,10.34,0,0,0-4.85-1c-4.8,0-11.42,2.14-18.77,6.73-7.87,4.93-16.9,12.14-22.49,23.09l-4.05-2.35c5.59-10.94,14.61-18.15,22.48-23.07,7.35-4.6,14-6.74,18.77-6.74a10.17,10.17,0,0,1,5.07,1.14Z" style="fill:#fff;opacity:0.4"></path><path d="M423.55,350.56a10.91,10.91,0,0,0-5.83-1.5c-4.87,0-10.55,2.32-15.72,5.06-12.74,6.75-23.29,18.33-26,26.62-3.1,9.53.17,27.75,10.64,35.38q.75.56,1.53,1l-3.54-2,0,0-.15-.09a19.94,19.94,0,0,1-1.87-1.22c-10.47-7.63-13.74-25.85-10.64-35.38,2.69-8.28,13.25-19.87,26-26.62,5.17-2.74,10.85-5.06,15.72-5.06a10.92,10.92,0,0,1,5.73,1.46l3.87,2.2A2.82,2.82,0,0,1,423.55,350.56Z" style="fill:#90CAF9"></path><path d="M376,380.74a22.54,22.54,0,0,1,1.36-3.22l-4.06-2.35A23.13,23.13,0,0,0,372,378.4c-3.1,9.53.17,27.75,10.64,35.38a19.94,19.94,0,0,0,1.87,1.22l.15.09,0,0,3.54,2q-.78-.47-1.53-1C376.18,408.49,372.91,390.27,376,380.74Z" style="opacity:0.15"></path><path d="M357,402.94a1,1,0,0,1-.5-1.87l1.48-.85v-1a6.59,6.59,0,0,1,2.83-5.32l7.56-4.36a2.49,2.49,0,0,1,2.52-.13,3,3,0,0,1,1.3,2.62l.49-.28a1,1,0,0,1,1,1.73l-3.48,2v-3.33c0-.66-.2-.95-.31-1s-.3,0-.52.12l-7.56,4.37A4.6,4.6,0,0,0,360,399.2v2.17l-2.48,1.43A1,1,0,0,1,357,402.94Z" style="fill:#37474f"></path><path d="M352.46,409.06a104.31,104.31,0,0,1-9.92,27.63c-8.31,15.64-17.43,24.7-23,28.46a5.1,5.1,0,0,1-7.14-1.47,5.15,5.15,0,0,0,3.08-.87c5.58-3.75,14.7-12.81,23-28.46a104.19,104.19,0,0,0,9.92-27.63c1.4-7,1.38-11.39,1.1-13.64v0l.87,0c1.83,0,2.68.45,2.79.65C353.6,394.54,354.43,399.19,352.46,409.06Z" style="fill:#90CAF9"></path><path d="M352.46,409.06a104.31,104.31,0,0,1-9.92,27.63c-8.31,15.64-17.43,24.7-23,28.46a5.1,5.1,0,0,1-7.14-1.47,5.15,5.15,0,0,0,3.08-.87c5.58-3.75,14.7-12.81,23-28.46a104.19,104.19,0,0,0,9.92-27.63c1.4-7,1.38-11.39,1.1-13.64v0l.87,0c1.83,0,2.68.45,2.79.65C353.6,394.54,354.43,399.19,352.46,409.06Z" style="opacity:0.15"></path><path d="M416.06,407.44c-3,4.76-9.48,8.08-15.86,8.08a17.65,17.65,0,0,1-10.61-3.45,14.18,14.18,0,0,1-1.13-.92c.29.25.59.49.89.72a17.74,17.74,0,0,0,6.79,1.31c6.38,0,12.9-3.32,15.86-8.07,5.15-8.3,10.08-25.2,8.7-42.7-.34-4.23-1.2-6.78-2.24-8.33,2.16.11,5.55,1.16,6.3,10.66C426.14,382.25,421.22,399.15,416.06,407.44Z" style="fill:#90CAF9"></path><path d="M416.06,407.44c-3,4.76-9.48,8.08-15.86,8.08a17.65,17.65,0,0,1-10.61-3.45,14.18,14.18,0,0,1-1.13-.92c.29.25.59.49.89.72a17.74,17.74,0,0,0,6.79,1.31c6.38,0,12.9-3.32,15.86-8.07,5.15-8.3,10.08-25.2,8.7-42.7-.34-4.23-1.2-6.78-2.24-8.33,2.16.11,5.55,1.16,6.3,10.66C426.14,382.25,421.22,399.15,416.06,407.44Z" style="opacity:0.15"></path><path d="M350.37,393c1.83,0,2.68.45,2.79.65.44.86,1.27,5.51-.7,15.38a103.84,103.84,0,0,1-9.92,27.63c-8.31,15.64-17.43,24.7-23,28.46a5.1,5.1,0,0,1-7.47-2.07c-2.19-4.58-4.13-12.93-3.21-25.69C310,421.53,318.31,409,334.26,399c6.07-3.79,11.95-6,16.11-6Zm0-5c-4.8,0-11.42,2.14-18.76,6.73-11.78,7.37-26.13,19.85-27.75,42.27-1.43,19.8,3.61,32.19,9.44,34.83a4.09,4.09,0,0,0,1.72.34c6.81,0,21-12.6,31.94-33.17,10.47-19.71,13.73-41.71,10.63-47.66-1.14-2.19-3.69-3.34-7.22-3.34Z" style="fill:#90CAF9"></path><path d="M417.72,354.06h0c2,0,6.2,0,7,10.68,1.38,17.51-3.54,34.41-8.7,42.7-3,4.76-9.48,8.08-15.85,8.08a17.66,17.66,0,0,1-10.61-3.44c-8.69-6.33-11.31-22.19-8.83-29.79,2.17-6.69,11.59-17.41,23.57-23.75,5.62-3,10.12-4.48,13.38-4.48Zm0-5c-4.87,0-10.54,2.32-15.72,5.06-12.74,6.75-23.29,18.34-26,26.62-3.1,9.53.17,27.75,10.64,35.38a22.81,22.81,0,0,0,13.56,4.4c8.38,0,16.33-4.38,20.1-10.43,5.82-9.38,10.87-27.59,9.43-45.74-.9-11.51-5.81-15.29-12-15.29Z" style="fill:#90CAF9"></path><path d="M417.72,349.06a10.91,10.91,0,0,1,5.83,1.5,2.82,2.82,0,0,0-.29-.18l-3.87-2.2a10.92,10.92,0,0,0-5.73-1.46c-4.87,0-10.55,2.32-15.72,5.06-11.15,5.91-20.64,15.53-24.63,23.39l4.06,2.35c4-7.87,13.47-17.49,24.63-23.4C407.17,351.38,412.85,349.06,417.72,349.06Z" style="fill:#fff;opacity:0.4"></path><path d="M302.62,429.39l-62.44-36a20.92,20.92,0,0,0-31.37,18.11v2.23a3,3,0,0,0,6,0v-2.23a14.92,14.92,0,0,1,22.37-12.91l62.45,36a3,3,0,0,0,3-5.2Z" style="fill:#37474f"></path><path d="M417.72,354.06h0c2,0,6.2,0,7,10.68,1.38,17.51-3.54,34.41-8.7,42.7-3,4.76-9.48,8.08-15.85,8.08a17.66,17.66,0,0,1-10.61-3.44c-8.69-6.33-11.31-22.19-8.83-29.79,2.17-6.69,11.59-17.41,23.57-23.75,5.62-3,10.12-4.48,13.38-4.48Z" style="fill:#455a64;opacity:0.8"></path><path d="M350.37,393c1.83,0,2.68.45,2.79.65.44.86,1.27,5.51-.7,15.38a103.84,103.84,0,0,1-9.92,27.63c-8.31,15.64-17.43,24.7-23,28.46a5.1,5.1,0,0,1-7.47-2.07c-2.19-4.58-4.13-12.93-3.21-25.69C310,421.53,318.31,409,334.26,399c6.07-3.79,11.95-6,16.11-6Z" style="fill:#455a64;opacity:0.8"></path><path d="M328.77,395.09a1,1,0,0,1-.55-1.84,637.28,637.28,0,0,1,70.51-40.7,1,1,0,1,1,.88,1.79,635.78,635.78,0,0,0-70.28,40.58A1,1,0,0,1,328.77,395.09Z" style="fill:#37474f"></path></g></g><g id="freepik--glasses-2--inject-53"><g id="freepik--glasses--inject-53"><path d="M224.89,309.22l-4.26-2.46-.33-7.86-50.42-29.11c-6.87-4-13.67-4.12-18.91-1.16l3.72-2.14c5.28-3.16,12.22-3.1,19.24.95l50.43,29.11Z" style="fill:#90CAF9"></path><path d="M224.89,309.22l-4.26-2.46-.33-7.86-50.42-29.11c-6.87-4-13.67-4.12-18.91-1.16l3.72-2.14c5.28-3.16,12.22-3.1,19.24.95l50.43,29.11Z" style="fill:#fff;opacity:0.4"></path><path d="M159.13,277.58a8.27,8.27,0,0,0-1.53,3.64l-.41,2.3a7.64,7.64,0,0,1-1.31,3.13,7.45,7.45,0,0,1-2.4,2.14l-3.95,2.29a7.53,7.53,0,0,0,3.61-5.21l.41-2.31C154.17,280.05,156.37,277.9,159.13,277.58Z" style="fill:#90CAF9"></path><path d="M159.13,277.58a8.27,8.27,0,0,0-1.53,3.64l-.41,2.3a7.64,7.64,0,0,1-1.31,3.13,7.45,7.45,0,0,1-2.4,2.14l-3.95,2.29a7.53,7.53,0,0,0,3.61-5.21l.41-2.31C154.17,280.05,156.37,277.9,159.13,277.58Z" style="opacity:0.15"></path><path d="M220.83,311.57,164,278.72a7.79,7.79,0,0,0-4.83-1.14c-2.76.32-5,2.47-5.58,6l-.41,2.31a7.53,7.53,0,0,1-3.61,5.21l-.15.09a7.54,7.54,0,0,1-7.54,0,2.13,2.13,0,0,1-1-2.22l1.09-6.1c1.18-6.6,4.41-11.41,8.78-14l.29-.17c5.24-3,12-2.8,18.91,1.16L220.3,298.9l.33,7.86Z" style="fill:#90CAF9"></path><path d="M152.37,288.11a7.59,7.59,0,0,1-2.84,3l3.95-2.29a7.45,7.45,0,0,0,2.4-2.14,7.77,7.77,0,0,0,.53-.87Z" style="opacity:0.15"></path><path d="M352.83,235.36l-4.26-2.46-.33-7.86-50.42-29.11c-6.87-4-13.67-4.12-18.91-1.16l3.72-2.14c5.28-3.16,12.22-3.1,19.24,1l50.43,29.11Z" style="fill:#90CAF9"></path><path d="M352.83,235.36l-4.26-2.46-.33-7.86-50.42-29.11c-6.87-4-13.67-4.12-18.91-1.16l3.72-2.14c5.28-3.16,12.22-3.1,19.24,1l50.43,29.11Z" style="fill:#fff;opacity:0.4"></path><path d="M287.07,203.72a8.27,8.27,0,0,0-1.53,3.64l-.41,2.3a7.64,7.64,0,0,1-1.31,3.13,7.45,7.45,0,0,1-2.4,2.14l-3.95,2.29a7.53,7.53,0,0,0,3.61-5.21l.41-2.31C282.11,206.19,284.31,204,287.07,203.72Z" style="fill:#90CAF9"></path><path d="M287.07,203.72a8.27,8.27,0,0,0-1.53,3.64l-.41,2.3a7.64,7.64,0,0,1-1.31,3.13,7.45,7.45,0,0,1-2.4,2.14l-3.95,2.29a7.53,7.53,0,0,0,3.61-5.21l.41-2.31C282.11,206.19,284.31,204,287.07,203.72Z" style="opacity:0.15"></path><path d="M348.77,237.71,291.9,204.86a7.79,7.79,0,0,0-4.83-1.14c-2.76.32-5,2.47-5.58,6l-.41,2.31a7.53,7.53,0,0,1-3.61,5.21l-.15.09a7.54,7.54,0,0,1-7.54,0,2.13,2.13,0,0,1-1-2.22l1.09-6.1c1.18-6.6,4.41-11.41,8.78-14l.29-.17c5.24-3,12-2.8,18.91,1.16L348.24,225l.33,7.86Z" style="fill:#90CAF9"></path><path d="M280.31,214.25a7.59,7.59,0,0,1-2.84,3l3.95-2.29a7.45,7.45,0,0,0,2.4-2.14,7,7,0,0,0,.53-.87Z" style="opacity:0.15"></path><path d="M356.36,225c-2.19.87-4.66,1.91-7.31,3.12-11.8,5.38-27.22,13.81-36.51,22.18-11.64,10.51-15.74,17.15-22.19,20.88s-10.54,1.8-22.18,4.73c-9.28,2.36-24.7,11.73-36.5,20-2.66,1.86-5.14,3.67-7.31,5.32a30.33,30.33,0,0,0,.54,12.68s2.52-2.24,3.79,2.69,2.07,15.31,4.51,19.92a13.15,13.15,0,0,0,4.69,5.37l.06,0h0a9.6,9.6,0,0,0,2.33,1h0a13.84,13.84,0,0,0,1.37.27h0a13.67,13.67,0,0,0,4.09-.13c.23,0,.46-.08.69-.14s.72-.16,1.09-.26.75-.22,1.14-.34a28.42,28.42,0,0,0,3.62-1.45c.5-.22,1-.48,1.55-.75s1.27-.68,1.94-1.07c15-8.65,21.23-20.56,24.93-31.26s2.72-22.2,9.63-26.19a7,7,0,0,1,.66-.34,4.79,4.79,0,0,1,.61-.24c5.55-1.78,4.91,9.65,8.37,15.65a15,15,0,0,0,5.26,5.7,12.17,12.17,0,0,0,1.25.63,5.4,5.4,0,0,0,.67.25c.23.08.46.15.7.21s.42.11.64.15a.52.52,0,0,0,.21,0l.48.08a4.87,4.87,0,0,0,.55.06l.38,0a17.81,17.81,0,0,0,6.39-.88l.59-.19a41.54,41.54,0,0,0,7.81-3.62c15-8.66,20.15-21.15,22.59-28.58s3.25-18.75,4.52-25.14,3.79-7.07,3.79-7.07C357.62,230,356.36,225,356.36,225Zm-79.54,77a47.61,47.61,0,0,1-5.17,14.91h0a41.85,41.85,0,0,1-16.32,16.29c-8.13,4.59-12.88,3.42-15.73.47a6.47,6.47,0,0,1-.5-.56c-.16-.19-.31-.38-.46-.58a5.72,5.72,0,0,1-.39-.57c-.11-.17-.22-.35-.32-.53a3.62,3.62,0,0,1-.24-.43,3.72,3.72,0,0,1-.21-.39c-.11-.22-.22-.45-.32-.67h0a19,19,0,0,1-.79-2s0,0,0,0c-.14-.43-.27-.86-.39-1.27-.21-.75-.38-1.47-.52-2.11l-.09-.41-.09-.39c-1.17-5.29-2.57-16.21,0-20.35s9.38-10.85,20.54-16.08c.38-.2.78-.38,1.19-.56a48.71,48.71,0,0,1,5.1-1.95c.67-.22,1.33-.41,2-.59a35.76,35.76,0,0,1,5-1c.53-.07,1-.12,1.52-.15a15.62,15.62,0,0,1,1.65-.05h.33l.6,0a5.1,5.1,0,0,1,3.35,1.18C278.72,286.51,278.07,294.63,276.82,302Zm68.65-42c-.91,5.18-2.87,16.36-11.22,25.54a37.77,37.77,0,0,1-8.87,7.18c-9.45,5.6-14.81,4.41-17.86,1.28l0-.06q-.18-.18-.33-.36c-.13-.14-.25-.29-.36-.43l-.18-.23c-.16-.22-.32-.45-.46-.68s-.33-.54-.48-.83c-.08-.13-.15-.27-.22-.41l-.11-.24c-.06-.12-.11-.24-.16-.36s-.09-.19-.12-.28a21.06,21.06,0,0,1-1.16-3.79c-1.24-5.93-1.91-13.28.33-18.23s11-14,19.5-20q2.92-2.07,5.48-3.58l.65-.38.7-.4c.65-.37,1.29-.71,1.9-1l.69-.35.9-.43c.51-.25,1-.47,1.49-.67,1-.42,1.9-.77,2.75-1l.65-.2.17,0c.14,0,.29-.09.44-.12s.45-.12.66-.17.54-.12.79-.17a11.51,11.51,0,0,1,1.3-.18l.23,0h0a6.11,6.11,0,0,1,3,.33C348,240.85,346.62,253.41,345.47,260Z"></path><path d="M305.25,302.35h0l-3.9-2.25a14.88,14.88,0,0,1-5.42-5.81c-2.22-3.83-2.75-9.9-4.31-13.3,5.55-1.78,4.91,9.65,8.37,15.65A15,15,0,0,0,305.25,302.35Z"></path><path d="M233.2,336.53c-2.44-4.61-3.25-15-4.51-19.92s-3.79-2.69-3.79-2.69l-.45-.26c.06.19.12.39.18.61,1.26,4.93,2.07,15.31,4.51,19.92a13,13,0,0,0,4.76,5.4l4,2.31A13.15,13.15,0,0,1,233.2,336.53Z"></path><path d="M224.36,301.24l-4.06-2.34a30.39,30.39,0,0,0,.53,12.67l3.62,2.09.45.26A30.33,30.33,0,0,1,224.36,301.24Z"></path><path d="M352.3,222.69c-2.19.86-4.66,1.91-7.32,3.12-11.79,5.37-27.21,13.8-36.5,22.17-11.64,10.51-15.75,17.16-22.19,20.88s-10.54,1.81-22.18,4.74c-9.28,2.35-24.7,11.73-36.5,20-2.66,1.85-5.14,3.67-7.31,5.32l4.06,2.34c2.17-1.65,4.65-3.46,7.31-5.32,11.8-8.25,27.22-17.62,36.5-20,11.64-2.93,15.73-1,22.18-4.73s10.55-10.37,22.19-20.88c9.29-8.37,24.71-16.8,36.51-22.18,2.65-1.21,5.12-2.25,7.31-3.12Z" style="fill:#455a64"></path><path d="M356.36,225c-2.19.87-4.66,1.91-7.31,3.12-11.8,5.38-27.22,13.81-36.51,22.18-11.64,10.51-15.74,17.15-22.19,20.88s-10.54,1.8-22.18,4.73c-9.28,2.36-24.7,11.73-36.5,20-2.66,1.86-5.14,3.67-7.31,5.32a30.33,30.33,0,0,0,.54,12.68s2.52-2.24,3.79,2.69,2.07,15.31,4.51,19.92a13.15,13.15,0,0,0,4.69,5.37l.06,0a9.06,9.06,0,0,0,2.33,1h0a13.84,13.84,0,0,0,1.37.27h0a13.67,13.67,0,0,0,4.09-.13c.23,0,.46-.08.69-.14s.72-.16,1.09-.26.75-.22,1.14-.34a28.42,28.42,0,0,0,3.62-1.45c.5-.22,1-.48,1.55-.75s1.27-.68,1.94-1.07c15-8.65,21.23-20.56,24.93-31.26s2.72-22.2,9.63-26.19a7,7,0,0,1,.66-.34,4.79,4.79,0,0,1,.61-.24c5.55-1.78,4.91,9.65,8.37,15.65a15,15,0,0,0,5.26,5.7h0a10.38,10.38,0,0,0,1.25.62,5.4,5.4,0,0,0,.67.25c.23.08.46.15.7.21s.42.11.64.15a.52.52,0,0,0,.21,0l.48.08a4.87,4.87,0,0,0,.55.06l.38,0a17.81,17.81,0,0,0,6.39-.88l.59-.19a41.54,41.54,0,0,0,7.81-3.62c15-8.66,20.15-21.15,22.59-28.58s3.25-18.75,4.52-25.14,3.79-7.07,3.79-7.07C357.62,230,356.36,225,356.36,225Zm-79.54,77a47.61,47.61,0,0,1-5.17,14.91h0a41.85,41.85,0,0,1-16.32,16.29c-8.13,4.59-12.88,3.42-15.73.47a6.47,6.47,0,0,1-.5-.56,6.15,6.15,0,0,1-.46-.58,5.72,5.72,0,0,1-.39-.57c-.11-.17-.22-.35-.32-.53a3.62,3.62,0,0,1-.24-.43,3.72,3.72,0,0,1-.21-.39c-.11-.22-.22-.45-.32-.67h0a19,19,0,0,1-.79-2s0,0,0,0c-.14-.43-.27-.86-.39-1.27-.21-.75-.38-1.47-.52-2.11l-.09-.41-.09-.39c-1.17-5.29-2.57-16.21,0-20.35s9.38-10.85,20.54-16.08c.38-.2.78-.38,1.19-.56a48.71,48.71,0,0,1,5.1-1.95c.67-.22,1.33-.41,2-.59a35.76,35.76,0,0,1,5-1c.53-.07,1-.12,1.52-.15a15.62,15.62,0,0,1,1.65-.05h.33a3.86,3.86,0,0,1,.6,0,5.1,5.1,0,0,1,3.35,1.18C278.72,286.51,278.07,294.63,276.82,302Zm68.65-42c-.91,5.18-2.87,16.36-11.22,25.54a37.77,37.77,0,0,1-8.87,7.18c-9.45,5.6-14.81,4.41-17.86,1.28l0-.06q-.18-.18-.33-.36c-.13-.14-.25-.29-.36-.43l-.18-.23c-.16-.22-.32-.45-.46-.68s-.33-.54-.48-.83c-.08-.13-.15-.27-.22-.41l-.11-.24c-.06-.12-.11-.24-.16-.36s-.09-.19-.12-.28a21.06,21.06,0,0,1-1.16-3.79c-1.24-5.93-1.91-13.28.33-18.23s11-14,19.5-20q2.92-2.07,5.48-3.58l.65-.38.7-.4c.65-.37,1.29-.71,1.9-1l.69-.35.9-.43c.51-.25,1-.47,1.49-.67,1-.42,1.9-.77,2.75-1l.65-.2.17,0c.14,0,.29-.09.44-.12s.45-.12.66-.17.54-.12.79-.17a11.51,11.51,0,0,1,1.3-.18l.23,0a6.11,6.11,0,0,1,3,.33C348,240.85,346.62,253.41,345.47,260Z" style="fill:#37474f"></path><path d="M276.82,302a47.61,47.61,0,0,1-5.17,14.91h0a41.85,41.85,0,0,1-16.32,16.29c-8.13,4.59-12.88,3.42-15.73.47,2.81.67,6.57.06,11.67-2.82a41.72,41.72,0,0,0,16.32-16.29h0a47.61,47.61,0,0,0,5.17-14.91c1.09-6.44,1.73-13.45.37-16.69a5.1,5.1,0,0,1,3.35,1.18C278.72,286.51,278.07,294.63,276.82,302Z"></path><path d="M345.47,260c-.91,5.18-2.87,16.36-11.22,25.54a37.77,37.77,0,0,1-8.87,7.18c-9.45,5.6-14.81,4.41-17.86,1.28,3.17.79,7.6,0,13.8-3.62a38,38,0,0,0,8.87-7.19c8.35-9.17,10.31-20.36,11.22-25.54s2-14.27,1.11-18.33a6.11,6.11,0,0,1,3,.33C348,240.85,346.62,253.41,345.47,260Z"></path><path d="M276.82,302a47.61,47.61,0,0,1-5.17,14.91h0a41.85,41.85,0,0,1-16.32,16.29c-8.13,4.59-12.88,3.42-15.73.47a6.47,6.47,0,0,1-.5-.56,6.15,6.15,0,0,1-.46-.58,5.72,5.72,0,0,1-.39-.57c-.11-.17-.22-.35-.32-.53a3.62,3.62,0,0,1-.24-.43,3.72,3.72,0,0,1-.21-.39c-.11-.22-.22-.45-.32-.67h0a19,19,0,0,1-.79-2s0,0,0,0c-.14-.43-.27-.86-.39-1.27-.21-.75-.38-1.47-.52-2.11l-.09-.41-.09-.39c-1.17-5.29-2.57-16.21,0-20.35s9.38-10.85,20.54-16.08c.38-.2.78-.38,1.19-.56a48.71,48.71,0,0,1,5.1-1.95c.67-.22,1.33-.41,2-.59a35.76,35.76,0,0,1,5-1c.53-.07,1-.12,1.52-.15a15.62,15.62,0,0,1,1.65-.05h.33a3.86,3.86,0,0,1,.6,0,5.1,5.1,0,0,1,3.35,1.18C278.72,286.51,278.07,294.63,276.82,302Z" style="fill:#90CAF9;opacity:0.85"></path><path d="M345.47,260c-.91,5.18-2.87,16.36-11.22,25.54a37.77,37.77,0,0,1-8.87,7.18c-9.45,5.6-14.81,4.41-17.86,1.28l0-.06q-.18-.18-.33-.36c-.13-.14-.25-.29-.36-.43l-.18-.23c-.16-.22-.32-.45-.46-.68s-.33-.54-.48-.83c-.08-.13-.15-.27-.22-.41l-.11-.24c-.06-.12-.11-.24-.16-.36s-.09-.19-.12-.28a21.06,21.06,0,0,1-1.16-3.79c-1.24-5.93-1.91-13.28.33-18.23s11-14,19.5-20q2.92-2.07,5.48-3.58l.65-.38.7-.4c.65-.37,1.29-.71,1.9-1l.69-.35.9-.43c.51-.25,1-.47,1.49-.67,1-.42,1.9-.77,2.75-1l.65-.2.17,0c.14,0,.29-.09.44-.12s.45-.12.66-.17.54-.12.79-.17a11.51,11.51,0,0,1,1.3-.18l.23,0a6.11,6.11,0,0,1,3,.33C348,240.85,346.62,253.41,345.47,260Z" style="fill:#90CAF9;opacity:0.85"></path></g></g><g id="freepik--glasses-1--inject-53"><g id="freepik--glasses--inject-53"><path d="M154.13,152.61a3.46,3.46,0,0,1-1.75-.47L90.12,116.19a14.57,14.57,0,0,0-21.85,12.62v1.53a3.5,3.5,0,0,1-7,0v-1.53a21.57,21.57,0,0,1,32.35-18.68l62.26,36a3.5,3.5,0,0,1-1.75,6.53Z" style="fill:#37474f"></path><path d="M261.81,90.43a3.45,3.45,0,0,1-1.74-.47L197.81,54A14.58,14.58,0,0,0,176,66.64v1.53a3.5,3.5,0,1,1-7,0V66.64A21.58,21.58,0,0,1,201.31,48L263.57,83.9a3.5,3.5,0,0,1-1.76,6.53Z" style="fill:#37474f"></path><path d="M267.43,78.74l-4.05-2.34h0c-2.91-1.76-20.81,8.37-28,13.68a62.39,62.39,0,0,0-23.85,38.37v0a6.37,6.37,0,0,0-6.73.19c-3.85,2.22-6.73,7.58-6.73,7.58h0a20.2,20.2,0,0,0-4.21-8.65l1-.23-4.15-2.4h0l0,0h0c-4.07-2.33-9.56-2.34-16.43.52-7.35,3.06-25.92,14-28.19,19-3.78,8.26-1.93,26.14,0,35.18,1.65,7.74,5.11,13.3,9.81,16.05h0l4.34,2.51-.21-.89c4.17.92,9,0,14.26-3,13.8-8,25-29.35,25-47.75,0,0,1.75-8.25,5.6-10.47s5.6,4,5.6,4c0,10,3.32,17.12,8.6,20.19h0l4.18,2.41.2-.87c3.56.55,7.65-.33,12-2.84,13.8-8,24.8-27.42,28.19-47.22,1.59-9.28,3.12-24.51,1.49-31.76ZM174.2,186.68c-10.66,6.15-19.3-.38-19.3-14.6s8.64-30.72,19.3-36.88,19.3.38,19.3,14.6S184.86,180.52,174.2,186.68Zm61.18-35.32c-10.66,6.15-19.31-.38-19.31-14.59s8.65-30.73,19.31-36.88,19.3.37,19.3,14.59S246,145.2,235.38,151.36Z" style="fill:#90CAF9"></path><path d="M267.43,78.74c-3-1.7-20.82,8.4-28,13.7a58.56,58.56,0,0,0-8.23,7.36l-4.06-2.34a59.19,59.19,0,0,1,8.23-7.37c7.19-5.31,25.09-15.43,28-13.68h0Z" style="fill:#fff;opacity:0.4"></path><path d="M194.82,127.31h0c-4.08-2.4-9.61-2.44-16.54.45-7.35,3.06-25.92,14-28.19,19L146,144.42c2.27-5,20.84-15.95,28.19-19,6.87-2.86,12.36-2.84,16.43-.51h0l0,0s0,0,0,0Z" style="fill:#fff;opacity:0.4"></path><path d="M215.1,130.5a6.52,6.52,0,0,0-6.25.46,11.58,11.58,0,0,0-2.13,1.61l-4.07-2.35a12.11,12.11,0,0,1,2.14-1.61,6.37,6.37,0,0,1,6.73-.19v0Z" style="fill:#fff;opacity:0.4"></path><path d="M206.72,132.57a25.49,25.49,0,0,0-4.59,6h0a24,24,0,0,0-2-5.46,21.48,21.48,0,0,1,2.55-2.86Z" style="opacity:0.05"></path><path d="M159.74,197.93l-3.93-2.27h0c-4.7-2.75-8.16-8.31-9.81-16.05-1.93-9-3.78-26.91,0-35.18l4.06,2.34c-3.78,8.27-1.93,26.15,0,35.19C151.7,189.61,155.1,195.14,159.74,197.93Z" style="opacity:0.15"></path><path d="M222.75,162.41,219,160.24c-5.28-3.07-8.6-10.14-8.6-20.19a11.23,11.23,0,0,0-.82-2c3.35-1.12,4.88,4.33,4.88,4.33C214.45,152.25,217.65,159.25,222.75,162.41Z" style="opacity:0.15"></path><path d="M231.21,99.8a63.18,63.18,0,0,0-15.61,31h0l-.06,0-.16-.09-.26-.14-3.57-2.07a63.32,63.32,0,0,1,15.62-31Z" style="opacity:0.05"></path><path d="M267.63,78.88c-2.27-2.35-20.84,8.12-28.19,13.55a62.39,62.39,0,0,0-23.85,38.37v0a6.37,6.37,0,0,0-6.73.19c-3.85,2.22-6.73,7.58-6.73,7.58h0a23.93,23.93,0,0,0-2-5.45c-3.86-7.3-11.2-9.76-21.84-5.33-7.35,3.06-25.92,14-28.19,19-3.78,8.27-1.93,26.15,0,35.18,3.38,15.89,14.39,22.63,28.19,14.66s25-29.34,25-47.74c0,0,1.75-8.26,5.6-10.48s5.6,4,5.6,4c0,18.4,11.19,26.86,25,18.89s24.81-27.42,28.19-47.21C269.55,102.81,271.41,82.79,267.63,78.88ZM178.26,189c-10.66,6.15-19.3-.38-19.3-14.59s8.64-30.73,19.3-36.88,19.3.38,19.3,14.59S188.92,182.87,178.26,189Zm61.18-35.32c-10.66,6.16-19.31-.38-19.31-14.59s8.65-30.73,19.31-36.88,19.3.38,19.3,14.59S250.1,147.55,239.44,153.7Z" style="fill:#90CAF9"></path><path d="M151.79,150.46a5.62,5.62,0,0,1,2.34-4.48c1.29-.74,2.34.05,2.34,1.77a5.62,5.62,0,0,1-2.34,4.48C152.84,153,151.79,152.19,151.79,150.46Z" style="fill:#37474f"></path><path d="M264.16,85.58c0-1.72-1.05-2.52-2.34-1.77a5.62,5.62,0,0,0-2.34,4.48c0,1.72,1,2.51,2.34,1.77A5.62,5.62,0,0,0,264.16,85.58Z" style="fill:#37474f"></path><path d="M197.56,152.14c0,14.22-8.64,30.73-19.3,36.88-5.81,3.36-11,2.95-14.56-.43,3,.88,6.63.32,10.5-1.91,10.66-6.16,19.3-22.67,19.3-36.88,0-6.47-1.79-11.35-4.75-14.17C194.05,137.15,197.56,143.09,197.56,152.14Z" style="fill:#90CAF9;opacity:0.4"></path><path d="M258.74,116.83c0,14.21-8.64,30.72-19.3,36.88-5.8,3.34-11,2.94-14.54-.42,3,.87,6.61.3,10.47-1.93,10.66-6.15,19.31-22.67,19.31-36.88,0-6.47-1.8-11.36-4.76-14.17C255.23,101.83,258.74,107.76,258.74,116.83Z" style="fill:#90CAF9;opacity:0.4"></path><g style="opacity:0.30000000000000004"><path d="M197.56,152.14c0,14.22-8.64,30.73-19.3,36.88-5.81,3.36-11,2.95-14.56-.43,3,.88,6.63.32,10.5-1.91,10.66-6.16,19.3-22.67,19.3-36.88,0-6.47-1.79-11.35-4.75-14.17C194.05,137.15,197.56,143.09,197.56,152.14Z" style="opacity:0.4"></path></g><g style="opacity:0.30000000000000004"><path d="M258.74,116.83c0,14.21-8.64,30.72-19.3,36.88-5.8,3.34-11,2.94-14.54-.42,3,.87,6.61.3,10.47-1.93,10.66-6.15,19.31-22.67,19.31-36.88,0-6.47-1.8-11.36-4.76-14.17C255.23,101.83,258.74,107.76,258.74,116.83Z" style="opacity:0.4"></path></g><ellipse cx="178.26" cy="163.29" rx="29.63" ry="16.76" transform="translate(-41.78 263.38) rotate(-66.95)" style="fill:#90CAF9;opacity:0.2"></ellipse><ellipse cx="239.44" cy="127.97" rx="29.63" ry="16.76" transform="matrix(0.39, -0.92, 0.92, 0.39, 27.94, 298.18)" style="fill:#90CAF9;opacity:0.2"></ellipse></g></g><g id="freepik--character-2--inject-53"><g id="freepik--character-boy--inject-53"><path d="M354.17,90.29c1.47,1.22,3.15,1.84,5.08,3.71a11.19,11.19,0,0,0,4.49,3.12c2.22.88,4.32.62,10.5-.36,7.56-1.21,10.82-2.49,14.08-5.27,3.81-3.25,12.34-13.06,16.47-16.92,4.36-4.07,10.35-2.5,10.35-2.5A62.56,62.56,0,0,1,407,89c-3.3,4.7-9.47,9.2-12.26,11.53-4.47,3.71-6.84,5.18-16.65,5.92-7.41.56-8.39.74-14.45.56-2.19-.07-3.56-.09-7.14-.39a21.1,21.1,0,0,1-4.6-.8,17.19,17.19,0,0,1-4.81-1.9,13,13,0,0,1-4.58-5.14,8.25,8.25,0,0,1-.85-3.7A5.48,5.48,0,0,1,343,91.61a1.6,1.6,0,0,1,.62-.45,1.81,1.81,0,0,1,1.34.28c2.32,1.2,4.65,2.83,7.08,3.76,2.05.79,3.61,1.07,3.46.66s-1.39-.8-2.66-2.23-1.59-3.44-.77-4.07S352.7,89.08,354.17,90.29Z" style="fill:#ffa8a7"></path><path d="M416.9,72a11.35,11.35,0,0,0-7.5-.82c-3.82,1.1-6.87,3.6-10.51,7.5S389.11,89,389.11,89s3,7.65,9.81,10.37l14.25-13.18Z" style="fill:#e0e0e0"></path><g id="freepik--character-boy--inject-53"><rect x="429.19" y="246.95" width="8.64" height="14.79" style="fill:#ffa8a7"></rect><polygon points="413.93 250.67 405.3 250.97 404.87 235.32 413.93 235.02 413.93 250.67" style="fill:#ffa8a7"></polygon><path d="M441.51,136.55c0,8.24-1.46,56.22-1.46,56.22.2,2.37,2.49,6.59,2.67,15.14.25,12.39-4.52,46.43-4.52,46.43a11.37,11.37,0,0,1-9.62.19s-3.91-46.14-5.46-58.41c-1.35-10.71-3.64-39.8-3.64-39.8l-4.07,35A49.23,49.23,0,0,1,416.48,205c-.4,5.67-2,40.81-2,40.81a11.8,11.8,0,0,1-10,.77s-6.09-50.1-6.19-55.31c-.12-5.94,2.25-66.54,2.25-66.54Z" style="fill:#37474f"></path><path d="M435.84,75.87A7.93,7.93,0,0,1,440,80.21a20.2,20.2,0,0,1,1.26,7.46v16.92l.25,32c-12.4,6.53-28.16,7-41.38-2.69,0,0,.74-41.13.74-47.86,0-.3,0-.61,0-.92.48-9.61,9.94-16.21,19.26-13.81l7.83,2,7.86,2.59Z" style="fill:#f0f0f0"></path><path d="M429.19,257.47v-1.24c-.82.36-2.74,7.69-6.17,10.82-2.72,2.48-6.44,5.35-7.38,8.12s5.17,4.47,7.72,4c2.95-.52,8.08-2.6,9.37-4.53s1.89-4.78,2.93-6.2,3.46-3,4-4.63c.31-.9-.06-2.87-.49-4.53s-.84-3.21-1.36-3.07v.95a6.89,6.89,0,0,1-4.32,1.46C432.25,258.68,429.18,258.43,429.19,257.47Z" style="fill:#263238"></path><path d="M405.21,248.3c-.45,0-.81.65-1.8,1.72a18.9,18.9,0,0,1-5.08,3.66c-3.24,1.62-9.53,4.11-12.37,5.39-1.78.8-1.7,2.95.14,4.17s6.28,2.1,11.6.91c2.9-.65,6.68-3.33,9.07-3.18s6.87.11,8.63-1.11,1.06-3.81.56-6.05c-.54-2.43-1.22-6.23-2-6.07v.84c-1,1.58-6.39,2.22-8.68,1.06Z" style="fill:#263238"></path><path d="M419.48,156.32a31.86,31.86,0,0,1-12-6.9s2.32,4.35,9.22,8.39l-.92,30.53Z" style="fill:#263238"></path><path d="M434.17,52.86s-1.92,9-2.69,10.54a4.16,4.16,0,0,1-2.37,1.91l.13-6.37Z" style="fill:#263238"></path><path d="M431.76,39.9a4.48,4.48,0,0,1,3.69,1.3c1.58,1.62.7,6.69-1.28,11.66l-3.62.42Z" style="fill:#263238"></path><path d="M429.46,53.28c.73.44,1.76-1,2.66-1.9s3.83-2.22,5.29.86-1.29,7.28-3.6,8c-4,1.25-4.57-1.3-4.57-1.3l-.13,14.72c-6.67,7.66-18.35,3.16-13.1-.77l0-4.36a25.07,25.07,0,0,1-5.36.28c-2.92-.46-4.76-2.76-5.64-5.92-1.43-5.08-2-9.18-.76-19.17,1.32-10.95,14.06-11.07,20.93-6.74S429.46,53.28,429.46,53.28Z" style="fill:#ffa8a7"></path><path d="M419.34,55.79h-.63a4.06,4.06,0,0,1,0-8.11h.63a4.06,4.06,0,0,1,0,8.11Zm-.63-7.42a3.37,3.37,0,0,0,0,6.74h.63a3.37,3.37,0,1,0,0-6.74Z" style="fill:#263238"></path><path d="M407,55.79h-.62a4.06,4.06,0,1,1,0-8.11H407a4.06,4.06,0,1,1,0,8.11Zm-.62-7.42a3.37,3.37,0,0,0,0,6.74H407a3.37,3.37,0,1,0,0-6.74Z" style="fill:#263238"></path><path d="M414.71,50.94a2.66,2.66,0,0,0-2.14-1.1,2.2,2.2,0,0,0-1.87.71l-.54-.41a2.8,2.8,0,0,1,2.45-1,3.35,3.35,0,0,1,2.69,1.42Z" style="fill:#263238"></path><rect x="423.02" y="50.9" width="8.62" height="0.68" style="fill:#263238"></rect><path d="M429.46,54.51c.36,0,1.76-2.3,2.66-3.13,1.25-1.14-.36-11.48-.36-11.48a4.89,4.89,0,0,0-1.21-5.22c-1.72-1.9-4.59-2.11-9.5-2.88-2.57-.4-6.47-1.12-9-1.6-3.07-.57-5.61-1.17-7.77.71A5.44,5.44,0,0,0,402.73,37a5.7,5.7,0,0,0,3.08,2.83s1.34,1.18,6,1.75a68,68,0,0,0,12.9-.25c1.35-.18,1.63,1.13,2.36,4.7C427.7,49.17,428.23,54.48,429.46,54.51Z" style="fill:#263238"></path><path d="M431.75,40.71l4.4-2.36a2.42,2.42,0,0,0-3.33-1.1A2.62,2.62,0,0,0,431.75,40.71Z" style="fill:#263238"></path><path d="M416,68.53s6.52-1.31,8.8-2.53A7.54,7.54,0,0,0,428,62.89a10.31,10.31,0,0,1-1.79,3.67C424.52,68.7,416,70.27,416,70.27Z" style="fill:#f28f8f"></path><path d="M417.59,51.65a1.31,1.31,0,1,0,1.31-1.36A1.34,1.34,0,0,0,417.59,51.65Z" style="fill:#263238"></path><path d="M419.69,46.24l2.8,1.54a1.67,1.67,0,0,0-.65-2.22A1.56,1.56,0,0,0,419.69,46.24Z" style="fill:#263238"></path><path d="M416.62,60.68l-3,1.12a1.58,1.58,0,0,0,2,1A1.68,1.68,0,0,0,416.62,60.68Z" style="fill:#f28f8f"></path><path d="M405.6,47.39l2.55-2a1.54,1.54,0,0,0-2.21-.34A1.68,1.68,0,0,0,405.6,47.39Z" style="fill:#263238"></path><path d="M406.72,51.28A1.32,1.32,0,0,0,408,52.63a1.36,1.36,0,1,0-1.31-1.35Z" style="fill:#263238"></path><polygon points="413.18 50.23 413.03 58.16 408.35 57.12 413.18 50.23" style="fill:#f28f8f"></polygon></g></g><path d="M454.28,120c-2.75-32-8.33-42.37-17.5-43.68-3.17,2.78-3.93,12.55-.62,19.06,0,0,7.12,20.09,7.53,27.39a108.27,108.27,0,0,1-1.46,20.9,3.87,3.87,0,0,1-1.44,2.37c-2,1.6-1.88,3.21-3.32,5.1-1.12,1.48-2.17,1.93-2,2.34a2.11,2.11,0,0,0,2.79.65,11,11,0,0,0,2.47-1.72,22.06,22.06,0,0,1-2.59,5.45c-2.61,4-2.49,6.35,3.64,5.71,3.83-.39,6.63-3.11,8.56-11.88.55-2.53,1.86-7.15,2.41-10.39C454.36,132,454.72,125.15,454.28,120Z" style="fill:#ffa8a7"></path><path d="M434.17,75.33s6.69.47,10.06,4.43,6.6,10.83,8.85,23.85c0,0-4.22,6-15.25,4.38,0,0-4.8-16.16-5.23-22.89C432.13,77.76,434.17,75.33,434.17,75.33Z" style="fill:#e0e0e0"></path></g><g id="freepik--character-1--inject-53"><g id="freepik--Character--inject-53"><path d="M74,413.36v-1.24c.49,1.45,2.75,7.7,6.19,10.84,2.73,2.49,6.45,5.36,7.4,8.14s-5.19,3.86-7.74,3.41c-3-.53-6.79-2.21-8.88-4.77-1.47-1.81-2.4-3.94-3.45-5.36s-3.47-3-4-4.64c-.31-.91.06-2.88.49-4.55s.84-3.21,1.36-3.07v.95a6.93,6.93,0,0,0,4.33,1.46C71,414.58,74,414.33,74,413.36Z" style="fill:#263238"></path><path d="M82.69,425.15c-.85-.76-1.7-1.5-2.47-2.2-2.4-2.19-4.23-5.9-5.28-8.43A11.89,11.89,0,0,1,74,410V405H65.37v8h0v.21l0,0c.41,1.8,4.38,6.59,6.64,9.71,1.51,2.09,4.39,4.75,7.82,5.21C83.14,428.64,84.8,427.62,82.69,425.15Z" style="fill:#ffa8a7"></path><path d="M107.79,404.83v-1.24c.49,1.45,2.75,7.7,6.19,10.83,2.73,2.5,6.45,5.37,7.4,8.15s-5.18,3.86-7.73,3.4c-3-.52-6.8-2.2-8.89-4.77-1.47-1.8-2.4-3.94-3.45-5.35s-3.46-3-4-4.65c-.31-.9.06-2.87.5-4.54s.83-3.21,1.36-3.07v.94a6.81,6.81,0,0,0,4.32,1.47C104.73,406,107.8,405.79,107.79,404.83Z" style="fill:#263238"></path><path d="M116.45,416.62c-.85-.76-1.7-1.5-2.47-2.2-2.4-2.19-4.23-5.9-5.28-8.44a11.84,11.84,0,0,1-.91-4.55v-4.94H99.14v8h0v.21l0,0c.42,1.8,4.39,6.59,6.64,9.71,1.52,2.09,4.39,4.75,7.83,5.21C116.9,420.11,118.57,419.08,116.45,416.62Z" style="fill:#ffa8a7"></path><path d="M67.09,278.84c-6.71,14.65.25,66.28.25,66.28-.2,2.38-2.92,7.06-3.94,17.53-1.19,12.37,1.88,43.43,1.88,43.43a9.36,9.36,0,0,0,8.75.34s8.25-46.77,9.8-59.07c1.35-10.73,4-34.33,4-34.33l7.39,34.27a63.55,63.55,0,0,0-2.34,10.6c-.7,7.23,6.31,40.91,6.31,40.91s3,1.1,8.65.26c0,0,2.48-44.69,3.13-53.41,1.1-14.63-2.79-60.29-5.47-69Z" style="fill:#37474f"></path><path d="M87.78,313,90,299.41s9.22-1.91,13.4-5.84c0,0-4.39,5.45-10.9,7.24L90,311.29,94.29,343Z" style="fill:#263238"></path><path d="M92.66,227.52s7.1-1,11.61,4.93C107.73,237,121,254.24,121,254.24s19.54-9.78,20.5-10.94.42-3.5.16-4.79-.7-4.16-1-5c-.5-1.41,1.58-1,2.8.28s1.77,3.88,2.38,4.33,2.57-2,2.86-2.31c1.08-1.13,2.66-3.87,4.5-3.52a2,2,0,0,1,1.39,1.12,7.19,7.19,0,0,0,1.11,2.4,5.14,5.14,0,0,1,.88,1c.26.51.11,1,.26,1.53.21.73,1.12,1.08,1.38,1.8.19.52,0,1.11.09,1.65.06.35.26.67.32,1a2.46,2.46,0,0,1-.72,1.9c-1.59,1.88-3.76,2.6-5.83,3.75-1.73,1-3.51,1.38-5.5,2.26s-25.08,16.89-28.73,14.87-22.52-24-22.52-24C89.89,232.64,92.66,227.52,92.66,227.52Z" style="fill:#ffa8a7"></path><path d="M78.93,227.92h0c-8.6.59-9.2,4.75-11.36,9.29a14.68,14.68,0,0,0-.4,11.09l6,17.34s-2.81,6.79-6.07,13.2c15,8.39,33.84,4,38.36-2.15.19-1.3-1-11.46-1.69-18.1,2.65-6.64,3.35-10.86,2.23-15.25-2.07-8.16-10.13-16.1-13.69-15.81Z" style="fill:#90CAF9"></path><path d="M89.16,220l-6.34,0a16,16,0,0,1-16.08-15.94h0a19.19,19.19,0,0,1,19.1-19.26h0A19.19,19.19,0,0,1,105.1,204h0A16,16,0,0,1,89.16,220Z" style="fill:#263238"></path><path d="M80.87,180.35c2.74,4-.17,6.78-4.2,9.52s-7.66,4.43-10.4.39S65,181.73,69.07,179,78.13,176.32,80.87,180.35Z" style="fill:#263238"></path><path d="M71,192.82l-4.06,3a2.45,2.45,0,0,1,.44-3.52A2.64,2.64,0,0,1,71,192.82Z" style="fill:#263238"></path><path d="M97.69,193.39c2,1.19,4.56,6.28,4.36,17-.17,9.05-3.1,11.3-4.57,12s-4.31.27-7.08-.18l.16,5.5s4.66,3.81,4.43,6.3-6.46,3.64-10,1.23a42.19,42.19,0,0,1-6.44-5.56.52.52,0,0,1-.15-.38v-13.7s-1.62,1.58-4.39-.82c-2.28-2-3.06-5.33-1.3-7.13A4,4,0,0,1,79,208.79s4.4.14,10.25-3.11A16.47,16.47,0,0,0,97.69,193.39Z" style="fill:#ffa8a7"></path><path d="M91.93,208.11a1.14,1.14,0,1,1-2.27.12,1.14,1.14,0,1,1,2.27-.12Z" style="fill:#263238"></path><path d="M92.27,215.79l2.64.83a1.35,1.35,0,0,1-1.71.95A1.44,1.44,0,0,1,92.27,215.79Z" style="fill:#f28f8f"></path><path d="M101.25,204.58,98.94,203a1.34,1.34,0,0,1,1.91-.4A1.47,1.47,0,0,1,101.25,204.58Z" style="fill:#263238"></path><path d="M100.73,207.25a1.14,1.14,0,1,1-1.2-1.12A1.16,1.16,0,0,1,100.73,207.25Z" style="fill:#263238"></path><polygon points="95.6 206.06 95.57 213.48 99.17 212.34 95.6 206.06" style="fill:#f28f8f"></polygon><path d="M90.4,222.12c-2.91-.37-8.9-2.06-9.85-4.43a6.13,6.13,0,0,0,2.11,3c1.8,1.53,7.8,3.25,7.8,3.25Z" style="fill:#f28f8f"></path><path d="M97.19,207.21a1.49,1.49,0,0,0-1.21-.52,5,5,0,0,0-1.9,1.22l-.67-.9a4.64,4.64,0,0,1,2.47-1.41,2.54,2.54,0,0,1,1.81.47Z" style="fill:#263238"></path><path d="M94.38,205c-1.08-1.75-2.44-2.25-5.76-2.27s-5.12.8-6,2.89a5.9,5.9,0,0,0,4.75,7.55c4.5.67,6.47-2.27,7-4.08C94.82,207.56,94.94,205.91,94.38,205Z" style="fill:#90CAF9"></path><path d="M87.89,212.18l-.34,0a4.58,4.58,0,0,1-3.44-2.29A4.92,4.92,0,0,1,83.6,206c.55-1.37,1.61-2.27,5-2.25.74,0,1.35,0,1.86.09,1.81.19,2.44.72,3,1.7a5.21,5.21,0,0,1-5.62,6.66Z" style="fill:#263238"></path><path d="M97.07,205.38c.14-1.63,1.9-3.46,4.74-3.79,2.27-.26,4.37,1.13,4.41,3.2.06,2.54-.67,5.51-4,6.06C99.33,211.33,96.58,209.35,97.07,205.38Z" style="fill:#90CAF9"></path><path d="M101,209.88a3.21,3.21,0,0,1-2.19-1.16,4.26,4.26,0,0,1-.7-3.21c.11-1.25,1.57-2.65,3.84-2.91a3.84,3.84,0,0,1,.83,0,2.51,2.51,0,0,1,2.46,2.22c.06,3-1,4.67-3.14,5A4.07,4.07,0,0,1,101,209.88Z" style="fill:#263238"></path><path d="M82.78,280.46A9.07,9.07,0,0,1,76,269.39a4.68,4.68,0,0,1,.15-.48,3,3,0,0,1,3-2h0a8.75,8.75,0,0,1-3.76-5.6l-1.83-10.87a12.66,12.66,0,0,1,.46-5.27l-6-7-1.12.78a15.1,15.1,0,0,0,.25,9.37l6,17.34s-2.81,6.79-6.07,13.2A38.92,38.92,0,0,0,99.24,281,43.8,43.8,0,0,1,82.78,280.46Z" style="opacity:0.1"></path><path d="M51.7,271.09c7.81-31.93,13.58-42.58,23.07-42.45C77.54,232,76.78,242,72.4,248c0,0-9.76,20.59-11.32,27.91-1.37,6.44-2.92,14.53-2.82,20.06a4,4,0,0,0,1.09,2.63c1.78,1.93,1.79,3.48,2.94,5.62.9,1.67,1.89,2.3,1.61,2.67a2.15,2.15,0,0,1-2.93.22A10.84,10.84,0,0,1,58.75,305a22,22,0,0,0,1.76,5.92c2,4.52,1.52,6.83-4.58,5.22-3.82-1-6.22-4.19-6.79-13.38A69.17,69.17,0,0,1,49,292.6C49.85,283.89,50.44,276.23,51.7,271.09Z" style="fill:#ffa8a7"></path></g></g></svg>